<svg xmlns="http://www.w3.org/2000/svg" viewBox="0 0 24 24" role="img" aria-label="Google">
  <path fill="#4285F4" d="M21.35 12.22c0-.71-.06-1.42-.18-2.11H12v3.99h5.24a4.48 4.48 0 0 1-1.95 2.94v2.44h3.15c1.84-1.69 2.91-4.18 2.91-7.26Z"/>
  <path fill="#34A853" d="M12 22c2.7 0 4.97-.9 6.63-2.45l-3.15-2.44c-.87.58-1.98.93-3.48.93-2.68 0-4.95-1.81-5.77-4.24H2.98v2.51A10 10 0 0 0 12 22Z"/>
  <path fill="#FBBC05" d="M6.23 13.8A6 6 0 0 1 5.91 12c0-.62.11-1.23.32-1.8V7.69H2.98A10 10 0 0 0 2 12c0 1.61.38 3.13.98 4.31l3.25-2.51Z"/>
  <path fill="#EA4335" d="M12 5.96c1.43 0 2.72.49 3.74 1.47l2.8-2.8A9.55 9.55 0 0 0 12 2a10 10 0 0 0-9.02 5.69l3.25 2.51C7.05 7.77 9.32 5.96 12 5.96Z"/>
</svg>
