<svg xmlns="http://www.w3.org/2000/svg" width="72" height="70" viewBox="0 0 72 70" role="img" aria-labelledby="title">
  <title id="title">Pyrags</title>
  <path
    fill="var(--logo-mark, #063e36)"
    d="M 33.7,5.1 C 25.9,1.6 16.6,4.3 11.1,10.3 6.4,15.5 5.1,23 7.4,29 c 0.8,2.1 2.6,3.5 4.7,4.5 l 17.8,9.4 c 2.7,1.4 5.1,1.4 7.7,-0.2 C 44.3,38.6 48.9,34.5 50.9,29.3 54.6,19.7 46.5,9.6 33.7,5.1 Z"
  />
  <path
    fill="var(--logo-wordmark, #00352f)"
    d="M 53.2,16.9 C 52.7,28.2 48.4,38.1 41.1,44.6 l -2.2,1.9 C 35,50 30.4,50.4 25.9,47.9 L 9.1,38.4 C 6.8,37.1 4.5,36.6 3.5,37.1 2.4,37.6 2.3,40.6 2.3,43.9 v 4.3 c 0,10.2 7.6,18.2 17.8,18.2 h 17.1 c 5.7,0 8.9,-1.2 13.2,-4.5 l 7.5,-5.8 C 65.5,50.2 69.4,43.9 69.4,35.6 69.4,27.1 63.6,18.8 53.2,16.9 Z"
  />
</svg>
