<?xml version="1.0" encoding="UTF-8" standalone="no"?>
<svg
   width="236"
   height="66"
   viewBox="8 9 236 66"
   role="img"
   aria-labelledby="title desc"
   version="1.1"
   id="svg12"
   xmlns="http://www.w3.org/2000/svg"
   xmlns:svg="http://www.w3.org/2000/svg">
  <defs
     id="defs16" />
  <title
     id="title">Pyrags</title>
  <desc
     id="desc">A two-part green folded mark beside the Pyrags wordmark.</desc>
  <g
     transform="translate(8,8)"
     id="g8">
    <path
       fill="var(--logo-mark, #063e36)"
       d="M 33.7,5.1 C 25.9,1.6 16.6,4.3 11.1,10.3 6.4,15.5 5.1,23 7.4,29 c 0.8,2.1 2.6,3.5 4.7,4.5 l 17.8,9.4 c 2.7,1.4 5.1,1.4 7.7,-0.2 C 44.3,38.6 48.9,34.5 50.9,29.3 54.6,19.7 46.5,9.6 33.7,5.1 Z"
       id="path4" />
    <path
       fill="var(--logo-wordmark, #00352f)"
       d="M 53.2,16.9 C 52.7,28.2 48.4,38.1 41.1,44.6 l -2.2,1.9 C 35,50 30.4,50.4 25.9,47.9 L 9.1,38.4 C 6.8,37.1 4.5,36.6 3.5,37.1 2.4,37.6 2.3,40.6 2.3,43.9 v 4.3 c 0,10.2 7.6,18.2 17.8,18.2 h 17.1 c 5.7,0 8.9,-1.2 13.2,-4.5 l 7.5,-5.8 C 65.5,50.2 69.4,43.9 69.4,35.6 69.4,27.1 63.6,18.8 53.2,16.9 Z"
       id="path6" />
  </g>
  <g
     aria-label="Pyrags"
     id="text10"
     style="font-weight:700;font-size:42px;font-family:'DejaVu Sans';letter-spacing:-2.2;fill:var(--logo-wordmark, #00352f)">
    <path
       d="m 95.855469,27.381836 h 13.104491 q 5.84473,0 8.96192,2.604492 3.13769,2.583984 3.13769,7.382813 0,4.819336 -3.13769,7.423828 -3.11719,2.583984 -8.96192,2.583984 h -5.20898 V 58 h -7.895511 z m 7.895511,5.72168 v 8.551757 h 4.36816 q 2.29688,0 3.54785,-1.107421 1.25098,-1.12793 1.25098,-3.178711 0,-2.050782 -1.25098,-3.158204 -1.25097,-1.107421 -3.54785,-1.107421 z"
       id="path18" />
    <path
       d="m 121.87422,35.03125 h 7.34179 l 6.17286,15.585937 5.25,-15.585937 h 7.34179 l -9.65918,25.142578 q -1.45605,3.834961 -3.40429,5.352539 -1.92774,1.538086 -5.10645,1.538086 h -4.24512 v -4.819336 h 2.29688 q 1.86621,0 2.70703,-0.594726 0.86133,-0.594727 1.33301,-2.132813 l 0.20508,-0.635742 z"
       id="path20" />
    <path
       d="m 167.1293,41.286133 q -0.96387,-0.451172 -1.92774,-0.65625 -0.94336,-0.225586 -1.90723,-0.225586 -2.83007,0 -4.36816,1.825195 -1.51758,1.804688 -1.51758,5.188477 V 58 H 150.0668 V 35.03125 h 7.34179 v 3.773437 q 1.41504,-2.255859 3.24024,-3.28125 1.8457,-1.045898 4.40918,-1.045898 0.36914,0 0.7998,0.04102 0.43067,0.02051 1.25098,0.123047 z"
       id="path22" />
    <path
       d="m 178.87461,47.664062 q -2.29687,0 -3.46582,0.779297 -1.14844,0.779297 -1.14844,2.296875 0,1.394532 0.92285,2.194336 0.94336,0.779297 2.6045,0.779297 2.07129,0 3.48632,-1.476562 1.41504,-1.497071 1.41504,-3.732422 v -0.840821 z m 11.21777,-2.768554 V 58 h -7.40332 v -3.404297 q -1.47656,2.091797 -3.32226,3.055664 -1.8457,0.94336 -4.49121,0.94336 -3.56836,0 -5.80371,-2.07129 -2.21485,-2.091796 -2.21485,-5.414062 0,-4.040039 2.76856,-5.926758 2.78906,-1.886719 8.73633,-1.886719 h 4.32714 V 42.72168 q 0,-1.743164 -1.37402,-2.542969 -1.37402,-0.820313 -4.28613,-0.820313 -2.3584,0 -4.38867,0.47168 -2.03028,0.47168 -3.77344,1.415039 v -5.598633 q 2.3584,-0.574218 4.7373,-0.861328 2.37891,-0.307617 4.75782,-0.307617 6.21386,0 8.96191,2.460938 2.76855,2.440429 2.76855,7.957031 z"
       id="path24" />
    <path
       d="m 210.34843,54.103516 q -1.51757,2.009765 -3.34277,2.953125 Q 205.18047,58 202.78105,58 q -4.2041,0 -6.95215,-3.301758 -2.74804,-3.322265 -2.74804,-8.449219 0,-5.147461 2.74804,-8.428711 2.74805,-3.301757 6.95215,-3.301757 2.39942,0 4.22461,0.943359 1.8252,0.943359 3.34277,2.973633 V 35.03125 h 7.38282 v 20.651367 q 0,5.53711 -3.50684,8.449219 -3.48633,2.932617 -10.13086,2.932617 -2.15332,0 -4.16308,-0.328125 -2.00977,-0.328125 -4.04004,-1.004883 v -5.721679 q 1.92773,1.107421 3.77343,1.640625 1.84571,0.553711 3.71192,0.553711 3.60937,0 5.29101,-1.579102 1.68164,-1.579102 1.68164,-4.942383 z M 205.50859,39.80957 q -2.27637,0 -3.54785,1.681641 -1.27149,1.681641 -1.27149,4.757812 0,3.158204 1.23047,4.798829 1.23047,1.620117 3.58887,1.620117 2.29688,0 3.56836,-1.681641 1.27148,-1.681641 1.27148,-4.737305 0,-3.076171 -1.27148,-4.757812 -1.27148,-1.681641 -3.56836,-1.681641 z"
       id="path26" />
    <path
       d="m 240.53027,35.749023 v 5.578125 q -2.3584,-0.984375 -4.55273,-1.476562 -2.19434,-0.492188 -4.14258,-0.492188 -2.0918,0 -3.11719,0.533204 -1.00488,0.512695 -1.00488,1.599609 0,0.881836 0.75879,1.353516 0.7793,0.471679 2.76855,0.697265 l 1.292,0.18457 q 5.63964,0.717774 7.58789,2.358399 1.94824,1.640625 1.94824,5.147461 0,3.670898 -2.70703,5.516601 -2.70703,1.845704 -8.08008,1.845704 -2.27637,0 -4.7168,-0.369141 -2.41992,-0.348633 -4.9834,-1.066406 v -5.578125 q 2.19434,1.066406 4.49122,1.599609 2.31738,0.533203 4.69628,0.533203 2.15332,0 3.24024,-0.594726 1.08691,-0.594727 1.08691,-1.763672 0,-0.984375 -0.75879,-1.456055 -0.73828,-0.492187 -2.97363,-0.758789 l -1.29199,-0.164063 q -4.90137,-0.615234 -6.87012,-2.276367 -1.96875,-1.661133 -1.96875,-5.044922 0,-3.65039 2.50195,-5.414062 2.50196,-1.763672 7.66993,-1.763672 2.03027,0 4.26562,0.307617 2.23535,0.307617 4.86035,0.963867 z"
       id="path28" />
  </g>
</svg>
